<svg xmlns="http://www.w3.org/2000/svg" viewBox="0 0 100 100">
  <path d="M25 50c0-13.8 11.2-25 25-25s25 11.2 25 25-11.2 25-25 25-25-11.2-25-25zm75 0c0-29.8-24.1-54-54-54s-54 24.2-54 54 24.1 54 54 54 54-24.2 54-54z" fill="#61DAFB"/>
  <path d="M50 20.9c-2.7 0-5.3.4-7.8 1.1-1.3.4-2.6.9-3.8 1.6-.6.3-1.3.7-1.9 1.1-.3.2-.6.5-.9.7-.3.3-.6.5-.9.8-.6.6-1.2 1.2-1.7 1.9-.3.3-.5.7-.8 1-.2.4-.4.8-.6 1.2-.2.4-.4.9-.5 1.3-.2.5-.3 1-.4 1.6-.2.6-.3 1.2-.3 1.8 0 1.3.2 2.6.6 3.8.2.6.5 1.2.8 1.7.2.3.4.6.6.9.2.3.4.5.6.8.4.5.9 1 1.4 1.4.3.2.5.5.8.7.2.2.5.4.8.5.3.2.7.3 1 .4.4.2.9.3 1.3.5.4.1.9.2 1.4.3.6.1 1.1.2 1.7.2 1.3 0 2.6-.2 3.8-.6.6-.2 1.2-.5 1.7-.8.3-.2.6-.4.9-.6.3-.2.5-.4.8-.6.5-.4 1-.9 1.4-1.4.2-.3.5-.5.7-.8.2-.3.4-.5.5-.9.2-.4.3-.9.5-1.3.1-.4.2-.9.3-1.4.1-.6.2-1.1.2-1.7 0-1.3-.2-2.6-.6-3.8-.2-.6-.5-1.2-.8-1.7-.2-.3-.4-.6-.6-.9-.2-.3-.4-.5-.6-.8-.4-.5-.9-1-1.4-1.4-.3-.2-.5-.5-.8-.7-.2-.2-.5-.4-.8-.5-.3-.2-.7-.3-1-.4-.4-.2-.9-.3-1.3-.5-.4-.1-.9-.2-1.4-.3-.6-.1-1.1-.2-1.7-.2zm0 23.5c-5.2 0-9.5-4.3-9.5-9.5s4.3-9.5 9.5-9.5 9.5 4.3 9.5 9.5-4.3 9.5-9.5 9.5z"/>
</svg>
